<?xml version="1.0" encoding="iso-8859-1"?>
<!-- Generator: Adobe Illustrator 19.0.0, SVG Export Plug-In . SVG Version: 6.00 Build 0)  -->
<svg version="1.1" id="Layer_1" xmlns="http://www.w3.org/2000/svg" xmlns:xlink="http://www.w3.org/1999/xlink" x="0px" y="0px"
	 viewBox="0 0 512 512" style="enable-background:new 0 0 512 512;" xml:space="preserve">
<polygon style="fill:#F8F8F8;" points="425.081,480.393 383.062,503.244 341.043,480.393 299.024,503.244 257.005,480.393 
	214.987,503.244 172.968,480.393 130.949,503.244 88.929,480.393 88.929,8.961 425.081,8.961 "/>
<path d="M424.076,110.145c4.893,0,8.859-3.966,8.859-8.859V8.859c0-4.892-3.965-8.859-8.859-8.859H87.924
	c-4.893,0-8.859,3.966-8.859,8.859V480.29c0,3.246,1.775,6.232,4.627,7.783l42.019,22.852c2.639,1.435,5.825,1.435,8.464,0
	l37.786-20.549l37.787,20.549c1.319,0.717,2.776,1.076,4.232,1.076s2.913-0.359,4.232-1.076L256,490.374l37.786,20.549
	c2.637,1.434,5.824,1.435,8.464,0l37.787-20.549l37.787,20.549c2.639,1.435,5.825,1.435,8.464,0l42.018-22.852
	c2.851-1.551,4.626-4.537,4.626-7.783V134.358c0-4.892-3.965-8.859-8.859-8.859s-8.859,3.966-8.859,8.859v340.665l-33.159,18.034
	l-37.787-20.55c-2.639-1.435-5.825-1.435-8.464,0l-37.787,20.55l-37.786-20.55c-2.638-1.434-5.824-1.435-8.464,0l-37.787,20.55
	l-37.787-20.55c-2.639-1.435-5.825-1.435-8.464,0l-37.786,20.55l-33.161-18.033V17.717h318.435v83.569
	C415.217,106.179,419.182,110.145,424.076,110.145z"/>
<path d="M333.065,79.724c4.893,0,8.859-3.966,8.859-8.859c0-4.892-3.965-8.859-8.859-8.859H178.935
	c-4.893,0-8.859,3.966-8.859,8.859c0,4.892,3.965,8.859,8.859,8.859H333.065z"/>
<path d="M361.516,139.958h-65.002c-4.893,0-8.859,3.966-8.859,8.859s3.965,8.859,8.859,8.859h65.002
	c4.893,0,8.859-3.966,8.859-8.859S366.409,139.958,361.516,139.958z"/>
<path d="M141.627,148.817c0,4.892,3.965,8.859,8.859,8.859h115.318c4.893,0,8.859-3.966,8.859-8.859s-3.965-8.859-8.859-8.859
	H150.486C145.592,139.958,141.627,143.924,141.627,148.817z"/>
<path d="M361.516,226.76H200.843c-4.893,0-8.859,3.966-8.859,8.859c0,4.892,3.965,8.859,8.859,8.859h160.673
	c4.893,0,8.859-3.966,8.859-8.859C370.374,230.727,366.409,226.76,361.516,226.76z"/>
<path d="M150.486,244.477h19.646c4.893,0,8.859-3.966,8.859-8.859c0-4.892-3.965-8.859-8.859-8.859h-19.646
	c-4.893,0-8.859,3.966-8.859,8.859C141.627,240.511,145.592,244.477,150.486,244.477z"/>
<path d="M361.516,183.359h-211.03c-4.893,0-8.859,3.966-8.859,8.859c0,4.892,3.965,8.859,8.859,8.859h211.03
	c4.893,0,8.859-3.966,8.859-8.859C370.374,187.325,366.409,183.359,361.516,183.359z"/>
<path d="M361.516,365.272h-40.198c-4.893,0-8.859,3.966-8.859,8.859s3.965,8.859,8.859,8.859h40.198
	c4.893,0,8.859-3.966,8.859-8.859S366.409,365.272,361.516,365.272z"/>
<path d="M279.978,418.423h81.538c4.893,0,8.859-3.966,8.859-8.859c0-4.892-3.965-8.859-8.859-8.859h-81.538
	c-4.893,0-8.859,3.966-8.859,8.859C271.119,414.457,275.084,418.423,279.978,418.423z"/>
<path d="M150.486,382.989h137.76c4.893,0,8.859-3.966,8.859-8.859s-3.965-8.859-8.859-8.859h-137.76
	c-4.893,0-8.859,3.966-8.859,8.859S145.592,382.989,150.486,382.989z"/>
<g>
</g>
<g>
</g>
<g>
</g>
<g>
</g>
<g>
</g>
<g>
</g>
<g>
</g>
<g>
</g>
<g>
</g>
<g>
</g>
<g>
</g>
<g>
</g>
<g>
</g>
<g>
</g>
<g>
</g>
</svg>
