<?xml version="1.0" encoding="UTF-8"?>
<svg xmlns="http://www.w3.org/2000/svg" xmlns:xlink="http://www.w3.org/1999/xlink" viewBox="0 0 48 48" width="48px" height="48px">
<g id="surface101684180">
<path style=" stroke:none;fill-rule:nonzero;fill:rgb(100%,100%,100%);fill-opacity:1;" d="M 24 0 L 16 8 L 24 16 L 24 10 C 31.71875 10 38 16.28125 38 24 C 38 25.761719 37.660156 27.441406 37.0625 28.992188 L 40.09375 32.019531 C 41.304688 29.601562 42 26.882812 42 24 C 42 14.074219 33.925781 6 24 6 Z M 7.90625 15.980469 C 6.695312 18.398438 6 21.117188 6 24 C 6 33.925781 14.074219 42 24 42 L 24 48 L 32 40 L 24 32 L 24 38 C 16.28125 38 10 31.71875 10 24 C 10 22.238281 10.339844 20.558594 10.9375 19.007812 Z M 7.90625 15.980469 "/>
</g>
</svg>
