<?xml version="1.0" encoding="UTF-8"?>
<svg xmlns="http://www.w3.org/2000/svg" xmlns:xlink="http://www.w3.org/1999/xlink" viewBox="0 0 52 52" width="52px" height="52px">
<g id="surface101678552">
<path style=" stroke:none;fill-rule:nonzero;fill:rgb(100%,100%,100%);fill-opacity:1;" d="M 24 0 L 24 4.5 C 13.007812 5.523438 4.375 14.742188 4.375 26 C 4.375 31.867188 6.703125 37.164062 10.5 41.0625 L 15.9375 36.1875 C 13.320312 33.585938 11.6875 29.976562 11.6875 26 C 11.6875 18.78125 17.046875 12.796875 24 11.8125 L 24 16 L 36.8125 8 Z M 41.5 10.9375 L 36.125 15.8125 C 38.742188 18.414062 40.3125 22.03125 40.3125 26 C 40.3125 33.226562 34.960938 39.148438 28 40.125 L 28 36 L 15.1875 44 L 28 52 L 28 47.5 C 38.992188 46.476562 47.625 37.257812 47.625 26 C 47.625 20.132812 45.296875 14.835938 41.5 10.9375 Z M 41.5 10.9375 "/>
</g>
</svg>
